<svg style="display:none;" version="1.1" xmlns="http://www.w3.org/2000/svg"><symbol viewBox="0 0 40.2 26.9" id="icon-aadhar"><title>aadhar</title><style>.st0{fill:#E27A3F;} .st1{fill:#FFFFFF;}</style><path class="st0" d="M40.2 24.9c0 1.1-.9 2-2 2H2c-1.1 0-2-.9-2-2V2C0 .9.9 0 2 0h36.2c1.1 0 2 .9 2 2v22.9z"/><path fill="#fff" d="M3.2 2.8h34v21h-34z"/><path class="st0" d="M6.3 19.9c0-3.8 2.2-6.9 6-6.9s6 3.1 6 6.9"/><circle class="st0" cx="12.1" cy="9.8" r="2.6"/><path class="st0" d="M20.2 7.8h14v1h-14zm0 2h14v1h-14zm0 2h14v1h-14zm0 2h14v1h-14zm0 2h5v1h-5z"/></symbol><symbol viewBox="0 0 438.533 438.533" id="icon-black"><title>black</title> <g> <g> <path d="M246.676,182.72c-7.617,0-14.089-2.663-19.417-7.993c-5.33-5.327-7.992-11.799-7.992-19.414V0H63.953    C56.341,0,49.869,2.663,44.54,7.993c-5.33,5.327-7.994,11.799-7.994,19.414v383.719c0,7.617,2.664,14.089,7.994,19.417    c5.33,5.325,11.801,7.991,19.414,7.991h310.633c7.611,0,14.079-2.666,19.407-7.991c5.328-5.332,7.994-11.8,7.994-19.417V182.72    H246.676z M328.9,356.309c0,2.662-0.855,4.853-2.566,6.563s-3.901,2.567-6.564,2.567h-201c-2.663,0-4.853-0.856-6.567-2.567    c-1.709-1.711-2.568-3.901-2.568-6.563v-18.274c0-2.669,0.856-4.859,2.568-6.57c1.715-1.704,3.905-2.566,6.567-2.566h201    c2.663,0,4.854,0.862,6.564,2.566c1.711,1.711,2.566,3.901,2.566,6.57V356.309z M328.9,283.218c0,2.67-0.855,4.853-2.566,6.571    c-1.711,1.707-3.901,2.566-6.564,2.566h-201c-2.663,0-4.853-0.859-6.567-2.566c-1.709-1.719-2.568-3.901-2.568-6.571v-18.274    c0-2.662,0.856-4.853,2.568-6.563c1.715-1.711,3.905-2.566,6.567-2.566h201c2.663,0,4.854,0.855,6.564,2.566    s2.566,3.901,2.566,6.563V283.218z"/> <path d="M382.58,108.493l-89.078-89.081c-9.521-9.517-22.087-15.706-37.692-18.558v145.324h145.326    C398.281,130.566,392.091,118.006,382.58,108.493z"/> </g> </g>                </symbol><symbol viewBox="0 0 90 90" id="icon-facebook"><title>facebook</title> <g> <path id="svgstoredeb06590f34fbecef204517b578d4c5aFacebook__x28_alt_x29_" d="M90,15.001C90,7.119,82.884,0,75,0H15C7.116,0,0,7.119,0,15.001v59.998   C0,82.881,7.116,90,15.001,90H45V56H34V41h11v-5.844C45,25.077,52.568,16,61.875,16H74v15H61.875C60.548,31,59,32.611,59,35.024V41   h15v15H59v34h16c7.884,0,15-7.119,15-15.001V15.001z"/> </g>                </symbol><symbol viewBox="-252.9 361.6 91.3 69.9" id="icon-jobs"><title>jobs</title><style>.st0{fill:#E07A46;}</style><path class="st0" d="M-247.4 377.8c-3.5 0-5.5 2.9-5.5 6.4v40.9c0 3.5 2 6.4 5.5 6.4h7.9v-53.7h-7.9zm78.7 53.7c3.5 0 7.1-2.9 7.1-6.4v-41c0-3.5-3.6-6.4-7.1-6.4h-6.3v53.7h6.3v.1zm-9.1-53.7h-59v53.7h59"/><path class="st0" d="M-188.5 383.1c0 4.5-3.6 8.1-8.1 8.1h-24.1c-4.5 0-8.1-3.6-8.1-8.1v-13.4c0-4.4 3.6-8.1 8.1-8.1h24.2c4.5 0 8.1 3.6 8.1 8.1v13.4h-.1zm-5.4-13.4c0-1.5-1.2-2.7-2.7-2.7h-24.1c-1.5 0-2.7 1.2-2.7 2.7v13.4c0 1.5 1.2 2.7 2.7 2.7h24.2c1.5 0 2.7-1.2 2.7-2.7v-13.4h-.1z"/></symbol><symbol viewBox="-211.6 336.6 162.1 134.2" id="icon-language"><title>language</title><style>.st0{fill:#E07A46;}</style><path class="st0" d="M-66.9 342.9c19.7 5.6 23.6 80.1 7.1 91.5-9.5 6.6-53.1 2.9-53.1 2.9l1.5 33.5-25.4-33.2s-38.5-.4-57.6-1.1c-23.3-.7-22.5-87.5 0-93.6 29.5-8 96.9-8.8 127.5 0z" id="svgstoreee4731c8d40e14c5a5428cfbf4a44926XMLID_2_"/></symbol><symbol viewBox="0 0 508.52 508.52" id="icon-linkedin"><title>linkedin</title> <g> <g> <g> <path d="M413.172,0H95.347C42.684,0,0,42.684,0,95.347v317.825c0,52.664,42.684,95.347,95.347,95.347     h317.825c52.664,0,95.347-42.684,95.347-95.347V95.347C508.52,42.684,465.836,0,413.172,0z M190.695,377.417H127.13V154.94     h63.565V377.417z M160.883,141.305c-16.463,0-29.78-13.349-29.78-29.812s13.349-29.812,29.78-29.812     c16.463,0.032,29.812,13.38,29.812,29.812C190.695,127.956,177.346,141.305,160.883,141.305z M413.172,377.417h-63.565V239.862     c0-16.114-4.608-27.396-24.409-27.396c-32.831,0-39.156,27.396-39.156,27.396v137.555h-63.565V154.94h63.565v21.262     c9.09-6.96,31.782-21.231,63.565-21.231c20.595,0,63.565,12.332,63.565,86.83V377.417z"/> </g> </g> </g>                </symbol><symbol viewBox="-258.4 385.6 26.8 21.7" id="icon-navigation"><title>navigation</title><style>.st0{fill:#41413B;}</style><path class="st0" d="M-258.4 385.6h26.8v3.2h-26.8zm0 8.8h26.8v3.2h-26.8zm0 9.7h26.8v3.2h-26.8z"/></symbol><symbol viewBox="0 0 103 103" id="icon-ribbon_urgent_red"><title>ribbon_urgent_red</title><path d="M87,0h16V12H87V0Z" style="fill:#c33"/><path d="M0,91H12v12H0V91Z" style="fill:#c33"/><path d="M59,0h44L0,103V59Z" style="fill:#e8585d"/><text transform="translate(20.64 69.54) rotate(-45)" style="isolation:isolate;font-size:20px;fill:#fff;font-family:Source Sans Pro;font-weight:700">URGENT</text></symbol><symbol viewBox="0 0 103 103" id="icon-ribbon_urgent_yellow"><title>ribbon_urgent_yellow</title><path d="M87,0h16V12H87V0Z" style="fill:#91761f"/><path d="M0,91H12v12H0V91Z" style="fill:#91761f"/><path d="M59,0h44L0,103V59Z" style="fill:#fc0"/><text transform="translate(20.64 69.54) rotate(-45)" style="isolation:isolate;font-size:20px;fill:#343413;font-family:Source Sans Pro;font-weight:700">URGENT</text></symbol><symbol viewBox="39.5 -0.5 169.756 250" id="icon-rupee"><title>rupee</title><path d="M152.51 23.12h41.032L209.256-.5H55.214L39.5 23.12h26.74c27.085 0 52.083 2.09 62.08 24.742H55.214L39.5 71.482h91.77c-.003.053-.003.102-.003.155 0 16.974-14.106 43.01-60.685 43.01l-22.537-.026.025 22.07 90.26 112.81h40.194l-93.42-116.71c38.456-2.07 74.523-23.56 79.722-61.302h28.716l15.714-23.62h-44.84c-1.81-9.1-5.742-17.904-11.905-24.743z"/></symbol><symbol viewBox="-244.2 371.6 46.3 50.9" id="icon-timing"><title>timing</title><style>.st0{fill:#E07A46;}</style><path class="st0" d="M-225.2 371.6h7.9c-2.3 4-2.2 4.2 2.1 5.4 11.2 3 18.6 14 17.1 25.4-1.6 11.6-11.4 20.1-23 20.1s-21.4-8.7-22.9-20.2c-1.5-11.4 5.9-22.2 17.2-25.2 4.1-1.2 4.3-1.7 1.6-5.5zm4.2 9.4c-10 0-18.3 8.1-18.4 18.1s8 18.4 18 18.5c10.2.2 18.6-8.1 18.6-18.3 0-9.9-8.1-18.2-18.2-18.3z"/><path class="st0" d="M-211.2 390.3c-2.6 3.4-5 6.9-7.8 10.1-.6.7-2.4.3-3.7.4.2-1.2 0-3 .7-3.6 3.2-2.7 6.6-5.2 9.9-7.7.3.3.6.5.9.8z"/></symbol><symbol viewBox="0 0 486.392 486.392" id="icon-twitter"><title>twitter</title> <g> <g> <g> <path d="M395.193,0H91.198C40.826,0,0,40.826,0,91.198v303.995c0,50.372,40.826,91.198,91.198,91.198     h303.995c50.372,0,91.198-40.827,91.198-91.198V91.198C486.392,40.826,445.565,0,395.193,0z M364.186,188.598l0.182,7.752     c0,79.16-60.221,170.359-170.359,170.359c-33.804,0-65.268-9.91-91.776-26.904c4.682,0.547,9.454,0.851,14.288,0.851     c28.059,0,53.868-9.576,74.357-25.627c-26.204-0.486-48.305-17.814-55.935-41.586c3.678,0.669,7.387,1.034,11.278,1.034     c5.472,0,10.761-0.699,15.777-2.067c-27.39-5.533-48.031-29.7-48.031-58.701v-0.76c8.086,4.499,17.297,7.174,27.116,7.509     c-16.051-10.731-26.63-29.062-26.63-49.825c0-10.974,2.949-21.249,8.086-30.095c29.518,36.236,73.658,60.069,123.422,62.562     c-1.034-4.378-1.55-8.968-1.55-13.649c0-33.044,26.812-59.857,59.887-59.857c17.206,0,32.771,7.265,43.714,18.908     c13.619-2.706,26.448-7.691,38.03-14.531c-4.469,13.984-13.953,25.718-26.326,33.135c12.069-1.429,23.651-4.682,34.382-9.424     C386.073,169.659,375.889,180.208,364.186,188.598z"/> </g> </g>                </g>                </symbol><symbol viewBox="0 0 15 15" id="icon-web"><title>web</title> <g> <path d="M14.982,7C14.736,3.256,11.744,0.263,8,0.017V0H7.5H7v0.017C3.256,0.263,0.263,3.256,0.017,7H0v0.5   V8h0.017C0.263,11.744,3.256,14.736,7,14.982V15h0.5H8v-0.018c3.744-0.246,6.736-3.238,6.982-6.982H15V7.5V7H14.982z M4.695,1.635   C4.212,2.277,3.811,3.082,3.519,4H2.021C2.673,2.983,3.599,2.16,4.695,1.635z M1.498,5h1.758C3.122,5.632,3.037,6.303,3.01,7H1.019   C1.072,6.296,1.238,5.623,1.498,5z M1.019,8H3.01c0.027,0.697,0.112,1.368,0.246,2H1.498C1.238,9.377,1.072,8.704,1.019,8z    M2.021,11h1.497c0.292,0.918,0.693,1.723,1.177,2.365C3.599,12.84,2.673,12.018,2.021,11z M7,13.936   C5.972,13.661,5.087,12.557,4.55,11H7V13.936z M7,10H4.269C4.128,9.377,4.039,8.704,4.01,8H7V10z M7,7H4.01   c0.029-0.704,0.118-1.377,0.259-2H7V7z M7,4H4.55C5.087,2.443,5.972,1.339,7,1.065V4z M12.979,4h-1.496   c-0.293-0.918-0.693-1.723-1.178-2.365C11.4,2.16,12.327,2.983,12.979,4z M8,1.065C9.027,1.339,9.913,2.443,10.45,4H8V1.065z M8,5   h2.73c0.142,0.623,0.229,1.296,0.26,2H8V5z M8,8h2.99c-0.029,0.704-0.118,1.377-0.26,2H8V8z M8,13.936V11h2.45   C9.913,12.557,9.027,13.661,8,13.936z M10.305,13.365c0.483-0.643,0.885-1.447,1.178-2.365h1.496   C12.327,12.018,11.4,12.84,10.305,13.365z M13.502,10h-1.758c0.134-0.632,0.219-1.303,0.246-2h1.99   C13.928,8.704,13.762,9.377,13.502,10z M11.99,7c-0.027-0.697-0.112-1.368-0.246-2h1.758c0.26,0.623,0.426,1.296,0.479,2H11.99z"/> </g>                </symbol><symbol viewBox="0 0 96.875 96.875" id="icon-youtube"><title>youtube</title> <g> <path d="M95.201,25.538c-1.186-5.152-5.4-8.953-10.473-9.52c-12.013-1.341-24.172-1.348-36.275-1.341   c-12.105-0.007-24.266,0-36.279,1.341c-5.07,0.567-9.281,4.368-10.467,9.52C0.019,32.875,0,40.884,0,48.438   C0,55.992,0,64,1.688,71.336c1.184,5.151,5.396,8.952,10.469,9.52c12.012,1.342,24.172,1.349,36.277,1.342   c12.107,0.007,24.264,0,36.275-1.342c5.07-0.567,9.285-4.368,10.471-9.52c1.689-7.337,1.695-15.345,1.695-22.898   C96.875,40.884,96.889,32.875,95.201,25.538z M35.936,63.474c0-10.716,0-21.32,0-32.037c10.267,5.357,20.466,10.678,30.798,16.068   C56.434,52.847,46.23,58.136,35.936,63.474z"/> </g>                </symbol></svg>