<svg id="Layer_1" xmlns="http://www.w3.org/2000/svg" viewBox="-252.9 361.6 91.3 69.9"><style>.st0{fill:#E07A46;}</style><path class="st0" d="M-247.4 377.8c-3.5 0-5.5 2.9-5.5 6.4v40.9c0 3.5 2 6.4 5.5 6.4h7.9v-53.7h-7.9zm78.7 53.7c3.5 0 7.1-2.9 7.1-6.4v-41c0-3.5-3.6-6.4-7.1-6.4h-6.3v53.7h6.3v.1zm-9.1-53.7h-59v53.7h59"/><path class="st0" d="M-188.5 383.1c0 4.5-3.6 8.1-8.1 8.1h-24.1c-4.5 0-8.1-3.6-8.1-8.1v-13.4c0-4.4 3.6-8.1 8.1-8.1h24.2c4.5 0 8.1 3.6 8.1 8.1v13.4h-.1zm-5.4-13.4c0-1.5-1.2-2.7-2.7-2.7h-24.1c-1.5 0-2.7 1.2-2.7 2.7v13.4c0 1.5 1.2 2.7 2.7 2.7h24.2c1.5 0 2.7-1.2 2.7-2.7v-13.4h-.1z"/></svg>